<svg id="visual" viewBox="0 0 900 600" width="900" height="600" xmlns="http://www.w3.org/2000/svg" xmlns:xlink="http://www.w3.org/1999/xlink" version="1.1"><rect x="0" y="0" width="900" height="600" fill="#202020"></rect><defs><linearGradient id="grad1_0" x1="33.3%" y1="0%" x2="100%" y2="100%"><stop offset="20%" stop-color="#a7233a" stop-opacity="1"></stop><stop offset="80%" stop-color="#a7233a" stop-opacity="1"></stop></linearGradient></defs><defs><linearGradient id="grad1_1" x1="33.3%" y1="0%" x2="100%" y2="100%"><stop offset="20%" stop-color="#a7233a" stop-opacity="1"></stop><stop offset="80%" stop-color="#8b2735" stop-opacity="1"></stop></linearGradient></defs><defs><linearGradient id="grad1_2" x1="33.3%" y1="0%" x2="100%" y2="100%"><stop offset="20%" stop-color="#70292f" stop-opacity="1"></stop><stop offset="80%" stop-color="#8b2735" stop-opacity="1"></stop></linearGradient></defs><defs><linearGradient id="grad1_3" x1="33.3%" y1="0%" x2="100%" y2="100%"><stop offset="20%" stop-color="#70292f" stop-opacity="1"></stop><stop offset="80%" stop-color="#55282a" stop-opacity="1"></stop></linearGradient></defs><defs><linearGradient id="grad1_4" x1="33.3%" y1="0%" x2="100%" y2="100%"><stop offset="20%" stop-color="#3b2525" stop-opacity="1"></stop><stop offset="80%" stop-color="#55282a" stop-opacity="1"></stop></linearGradient></defs><defs><linearGradient id="grad1_5" x1="33.3%" y1="0%" x2="100%" y2="100%"><stop offset="20%" stop-color="#3b2525" stop-opacity="1"></stop><stop offset="80%" stop-color="#202020" stop-opacity="1"></stop></linearGradient></defs><defs><linearGradient id="grad2_0" x1="0%" y1="0%" x2="66.7%" y2="100%"><stop offset="20%" stop-color="#a7233a" stop-opacity="1"></stop><stop offset="80%" stop-color="#a7233a" stop-opacity="1"></stop></linearGradient></defs><defs><linearGradient id="grad2_1" x1="0%" y1="0%" x2="66.7%" y2="100%"><stop offset="20%" stop-color="#8b2735" stop-opacity="1"></stop><stop offset="80%" stop-color="#a7233a" stop-opacity="1"></stop></linearGradient></defs><defs><linearGradient id="grad2_2" x1="0%" y1="0%" x2="66.7%" y2="100%"><stop offset="20%" stop-color="#8b2735" stop-opacity="1"></stop><stop offset="80%" stop-color="#70292f" stop-opacity="1"></stop></linearGradient></defs><defs><linearGradient id="grad2_3" x1="0%" y1="0%" x2="66.7%" y2="100%"><stop offset="20%" stop-color="#55282a" stop-opacity="1"></stop><stop offset="80%" stop-color="#70292f" stop-opacity="1"></stop></linearGradient></defs><defs><linearGradient id="grad2_4" x1="0%" y1="0%" x2="66.7%" y2="100%"><stop offset="20%" stop-color="#55282a" stop-opacity="1"></stop><stop offset="80%" stop-color="#3b2525" stop-opacity="1"></stop></linearGradient></defs><defs><linearGradient id="grad2_5" x1="0%" y1="0%" x2="66.7%" y2="100%"><stop offset="20%" stop-color="#202020" stop-opacity="1"></stop><stop offset="80%" stop-color="#3b2525" stop-opacity="1"></stop></linearGradient></defs><g transform="translate(900, 0)"><path d="M0 486.7C-65.1 473.6 -130.3 460.5 -176.8 426.8C-223.3 393.2 -251.2 339 -299.1 299.1C-347 259.2 -415.1 233.7 -449.7 186.3C-484.3 138.8 -485.5 69.4 -486.7 0L0 0Z" fill="#2e2222"></path><path d="M0 405.6C-54.3 394.7 -108.6 383.7 -147.3 355.7C-186.1 327.6 -209.3 282.5 -249.3 249.3C-289.2 216 -345.9 194.8 -374.7 155.2C-403.6 115.7 -404.6 57.8 -405.6 0L0 0Z" fill="#482627"></path><path d="M0 324.5C-43.4 315.7 -86.9 307 -117.9 284.6C-148.9 262.1 -167.4 226 -199.4 199.4C-231.4 172.8 -276.7 155.8 -299.8 124.2C-322.9 92.5 -323.7 46.3 -324.5 0L0 0Z" fill="#62282d"></path><path d="M0 243.4C-32.6 236.8 -65.1 230.2 -88.4 213.4C-111.7 196.6 -125.6 169.5 -149.6 149.6C-173.5 129.6 -207.5 116.9 -224.8 93.1C-242.2 69.4 -242.8 34.7 -243.4 0L0 0Z" fill="#7d2832"></path><path d="M0 162.2C-21.7 157.9 -43.4 153.5 -58.9 142.3C-74.4 131.1 -83.7 113 -99.7 99.7C-115.7 86.4 -138.4 77.9 -149.9 62.1C-161.4 46.3 -161.8 23.1 -162.2 0L0 0Z" fill="#992637"></path><path d="M0 81.1C-10.9 78.9 -21.7 76.7 -29.5 71.1C-37.2 65.5 -41.9 56.5 -49.9 49.9C-57.8 43.2 -69.2 39 -74.9 31C-80.7 23.1 -80.9 11.6 -81.1 0L0 0Z" fill="#a7233a"></path></g><g transform="translate(0, 600)"><path d="M0 -486.7C48.6 -443.7 97.1 -400.7 158.8 -383.4C220.5 -366.2 295.4 -374.7 344.2 -344.2C393 -313.7 415.7 -244.1 435.1 -180.2C454.6 -116.4 470.7 -58.2 486.7 0L0 0Z" fill="#2e2222"></path><path d="M0 -405.6C40.5 -369.8 80.9 -333.9 132.3 -319.5C183.8 -305.1 246.2 -312.2 286.8 -286.8C327.5 -261.4 346.4 -203.4 362.6 -150.2C378.8 -97 392.2 -48.5 405.6 0L0 0Z" fill="#482627"></path><path d="M0 -324.5C32.4 -295.8 64.7 -267.1 105.9 -255.6C147 -244.1 196.9 -249.8 229.5 -229.5C262 -209.1 277.2 -162.7 290.1 -120.2C303 -77.6 313.8 -38.8 324.5 0L0 0Z" fill="#62282d"></path><path d="M0 -243.4C24.3 -221.9 48.6 -200.3 79.4 -191.7C110.3 -183.1 147.7 -187.3 172.1 -172.1C196.5 -156.8 207.9 -122.1 217.6 -90.1C227.3 -58.2 235.3 -29.1 243.4 0L0 0Z" fill="#7d2832"></path><path d="M0 -162.2C16.2 -147.9 32.4 -133.6 52.9 -127.8C73.5 -122.1 98.5 -124.9 114.7 -114.7C131 -104.6 138.6 -81.4 145 -60.1C151.5 -38.8 156.9 -19.4 162.2 0L0 0Z" fill="#992637"></path><path d="M0 -81.1C8.1 -74 16.2 -66.8 26.5 -63.9C36.8 -61 49.2 -62.4 57.4 -57.4C65.5 -52.3 69.3 -40.7 72.5 -30C75.8 -19.4 78.4 -9.7 81.1 0L0 0Z" fill="#a7233a"></path></g></svg>